<svg width="334" height="434" viewBox="0 0 334 434" fill="none" xmlns="http://www.w3.org/2000/svg">
<g opacity="0.2" filter="url(#filter0_f_3091_33916)">
<path d="M11.0957 282.286C6.33807 284.79 6.20603 291.555 10.8623 294.243L244.03 428.83C249.172 431.798 255.486 431.882 260.705 429.051L282.543 417.203C287.247 414.651 287.32 407.925 282.672 405.271L48.4446 271.55C43.3804 268.658 37.1906 268.552 32.0302 271.268L11.0957 282.286Z" fill="url(#paint0_linear_3091_33916)"/>
</g>
<path fill-rule="evenodd" clip-rule="evenodd" d="M29.1162 280.762L247.227 406.673C254.425 410.828 260.959 411.323 265.773 408.769C266.044 408.625 266.311 408.471 266.572 408.307L286.136 396.996C290.596 394.046 293.325 388.21 293.325 380.062V224.22C293.325 207.138 281.331 186.368 266.537 177.827L212.009 146.352L157.481 114.876L102.954 83.4004L48.4259 51.9248L48.4114 51.9164C41.1627 47.7363 34.5874 47.269 29.7669 49.89L10.5804 60.9628C10.3078 61.1072 10.0406 61.2614 9.77918 61.4252C5.16421 64.3174 2.32825 70.2216 2.32825 78.5277V234.369C2.32825 251.45 14.3216 272.221 29.1162 280.762ZM93.2988 88.9709L88.4714 91.7561L197.527 154.71L202.354 151.924L207.182 149.138L98.1262 86.1857L93.2988 88.9709Z" fill="#181734"/>
<path d="M88.4714 91.7561L93.2988 88.9709L98.1262 86.1857L207.182 149.138L202.354 151.924L197.527 154.71L88.4714 91.7561Z" fill="#181734"/>
<path d="M274.015 391.209V235.367M274.015 391.209L293.325 380.062M274.015 391.209C274.015 393.858 273.727 396.263 273.184 398.404C272.026 402.972 269.711 406.337 266.572 408.307M247.227 188.974C262.022 197.515 274.015 218.285 274.015 235.367M247.227 188.974L266.537 177.827M247.227 188.974L192.699 157.497L138.172 126.019L83.6439 94.5413L29.1162 63.0637C21.9234 58.9114 15.3927 58.4144 10.5804 60.9628M274.015 235.367L293.325 224.22M293.325 380.062V224.22M293.325 380.062C293.325 388.21 290.596 394.046 286.136 396.996L266.572 408.307M293.325 224.22C293.325 207.138 281.331 186.368 266.537 177.827M266.537 177.827L212.009 146.352L157.481 114.876L102.954 83.4004L48.4259 51.9248M29.1162 63.0552L48.4114 51.9164M48.4259 51.9081L48.4114 51.9164M48.4259 51.9248C48.421 51.922 48.4162 51.9192 48.4114 51.9164M48.4259 51.9248L48.4114 51.9164M9.77918 61.4252C5.16421 64.3174 2.32825 70.2216 2.32825 78.5277V234.369C2.32825 251.45 14.3216 272.221 29.1162 280.762L247.227 406.673C254.425 410.828 260.959 411.323 265.773 408.769M9.77918 61.4252C10.0406 61.2614 10.3078 61.1072 10.5804 60.9628M9.77918 61.4252L10.5804 60.9628M265.773 408.769C266.044 408.625 266.311 408.471 266.572 408.307M265.773 408.769L266.572 408.307M10.5804 60.9628L29.7669 49.89C34.5874 47.269 41.1627 47.7363 48.4114 51.9164M202.354 151.924L197.527 154.71L88.4714 91.7561L93.2988 88.9709L98.1262 86.1857L207.182 149.138L202.354 151.924Z" stroke="black" stroke-width="1.57908"/>
<rect width="78.0861" height="78.0789" rx="6.69412" transform="matrix(0.866052 0.499954 0 1 186.077 174.707)" fill="#2C2A53" stroke="black" stroke-width="1.57908"/>
<path d="M195.819 339.094C195.389 338.349 194.973 337.602 194.57 336.854C182.956 315.253 182.956 292.564 194.57 284.372C194.973 284.088 195.389 283.822 195.819 283.574C196.249 283.325 196.688 283.098 197.135 282.892C210.038 276.931 229.689 288.275 242.591 309.133C243.038 309.855 243.477 310.589 243.907 311.334C244.337 312.079 244.754 312.826 245.156 313.574C256.77 335.176 256.77 357.864 245.156 366.056C244.754 366.34 244.337 366.606 243.907 366.855C243.477 367.103 243.038 367.33 242.591 367.537C229.689 373.498 210.038 362.154 197.135 341.296C196.688 340.573 196.249 339.839 195.819 339.094Z" fill="#2C2A53"/>
<path d="M194.57 336.854C194.973 337.602 195.389 338.349 195.819 339.094C196.249 339.839 196.688 340.573 197.135 341.296M194.57 336.854C182.956 315.253 182.956 292.564 194.57 284.372M194.57 336.854L206.465 329.988C201.358 319.765 201.358 309.298 206.465 304.972L194.57 284.372M194.57 284.372C194.973 284.088 195.389 283.822 195.819 283.574C196.249 283.325 196.688 283.098 197.135 282.892M242.591 367.537C243.038 367.33 243.477 367.103 243.907 366.855C244.337 366.606 244.754 366.34 245.156 366.056M242.591 367.537C229.689 373.498 210.038 362.154 197.135 341.296M242.591 367.537L230.696 346.937C224.396 349.196 215.33 343.963 209.03 334.429L197.135 341.296M245.156 366.056C256.77 357.864 256.77 335.176 245.156 313.574M245.156 366.056L233.261 345.456C238.368 341.13 238.368 330.664 233.261 320.441L245.156 313.574M245.156 313.574C244.754 312.826 244.337 312.079 243.907 311.334C243.477 310.589 243.038 309.855 242.591 309.133M197.135 282.892C210.038 276.931 229.689 288.275 242.591 309.133M197.135 282.892L209.03 303.492C215.33 301.232 224.396 306.465 230.696 315.999L242.591 309.133M230.678 321.932C230.315 321.173 229.916 320.415 229.481 319.662C229.046 318.909 228.589 318.185 228.114 317.49C223.257 310.397 216.47 306.479 211.613 307.965C211.137 308.11 210.68 308.307 210.245 308.558C209.811 308.809 209.411 309.106 209.048 309.445C205.333 312.908 205.333 320.744 209.048 328.497C209.411 329.255 209.811 330.013 210.245 330.766C210.68 331.519 211.137 332.244 211.613 332.938C216.47 340.031 223.257 343.949 228.114 342.464C228.589 342.319 229.046 342.121 229.481 341.87C229.916 341.619 230.315 341.322 230.678 340.983C234.393 337.52 234.393 329.684 230.678 321.932Z" stroke="black" stroke-width="1.57908"/>
<path d="M16.3265 91.9313L16.3265 91.9313L22.7741 103.268L23.7497 104.984L23.2541 104.689L22.9731 104.522L22.7743 104.635L15.7678 108.618L14.6093 109.277L16.2476 110.252L32.5925 119.975C33.6582 120.609 34.6803 120.724 35.4339 120.296L45.2726 114.701C45.7776 114.414 46.0303 113.793 46.0303 113.024C46.0303 112.255 45.7776 111.333 45.2726 110.445L38.825 99.1077L37.8495 97.3924L37.8632 97.4005L37.8773 97.409L37.8913 97.4173L37.9052 97.4255L37.9189 97.4337L37.9324 97.4417L37.9458 97.4497L37.9591 97.4576L37.9721 97.4654L37.9851 97.4731L37.9979 97.4807L38.0105 97.4882L38.023 97.4956L38.0353 97.503L38.0475 97.5102L38.0595 97.5173L38.0714 97.5244L38.0831 97.5314L38.0946 97.5382L38.106 97.545L38.1173 97.5517L38.1283 97.5583L38.1392 97.5648L38.15 97.5712L38.1606 97.5775L38.171 97.5837L38.1813 97.5898L38.1914 97.5958L38.2013 97.6017L38.2111 97.6075L38.2207 97.6132L38.2302 97.6189L38.2395 97.6244L38.2486 97.6298L38.2576 97.6352L38.2663 97.6404L38.275 97.6455L38.2834 97.6505L38.2917 97.6555L38.2998 97.6603L38.3078 97.665L38.3155 97.6696L38.3231 97.6742L38.3306 97.6786L38.3378 97.6829L38.3449 97.6871L38.626 97.8543L38.8247 97.7413L45.8313 93.7575L46.9898 93.0987L45.3515 92.1242L29.0066 82.4011C27.9409 81.7671 26.9188 81.6517 26.1651 82.0802L16.3265 87.6745C15.8215 87.9617 15.5688 88.5831 15.5688 89.3522C15.5688 90.1213 15.8215 91.0433 16.3265 91.9313ZM36.8028 112.748L23.9324 105.092V103.399V90.1186C23.9324 89.56 24.3168 89.3423 24.7909 89.6243L24.812 89.6369L24.8333 89.6495L24.8547 89.6622L24.8762 89.675L24.8978 89.6879L24.9195 89.7008L24.9413 89.7138L24.9633 89.7269L24.9854 89.74L25.0076 89.7532L25.0298 89.7665L25.0523 89.7798L25.0748 89.7932L25.0974 89.8066L25.1201 89.8202L25.143 89.8338L25.166 89.8474L25.189 89.8611L25.2122 89.8749L25.2355 89.8888L25.2589 89.9027L25.2824 89.9167L25.306 89.9307L25.3297 89.9448L25.3535 89.959L25.3774 89.9732L25.4014 89.9875L25.4255 90.0018L25.4498 90.0163L25.4741 90.0307L25.4985 90.0453L25.523 90.0598L25.5477 90.0745L25.5724 90.0892L25.5972 90.104L25.6221 90.1188L25.6472 90.1337L25.6723 90.1486L25.6975 90.1636L25.7228 90.1787L25.7482 90.1938L25.7737 90.209L25.7993 90.2242L25.825 90.2395L25.8508 90.2548L25.8766 90.2702L25.9026 90.2856L25.9287 90.3011L25.9548 90.3167L25.981 90.3323L26.0074 90.348L26.0338 90.3637L26.0603 90.3794L26.0869 90.3953L26.1136 90.4111L26.1403 90.4271L26.1672 90.443L26.1941 90.4591L26.2212 90.4751L26.2483 90.4913L26.2755 90.5074L26.3027 90.5237L26.3301 90.5399L26.3575 90.5563L26.3851 90.5726L26.4127 90.589L26.4403 90.6055L26.4681 90.622L26.496 90.6386L26.5239 90.6552L26.5519 90.6719L26.58 90.6886L26.6081 90.7053L26.6364 90.7221L26.6647 90.739L26.693 90.7558L26.7215 90.7728L26.75 90.7897L26.7786 90.8068L26.8073 90.8238L26.8361 90.8409L26.8649 90.8581L26.8938 90.8753L26.9228 90.8925L26.9518 90.9098L26.9809 90.9271L27.0101 90.9444L27.0393 90.9618L27.0687 90.9793L27.098 90.9968L27.1275 91.0143L27.157 91.0318L27.1866 91.0494L27.2162 91.0671L27.2459 91.0847L27.2757 91.1024L27.3056 91.1202L27.3355 91.138L27.3654 91.1558L27.3954 91.1737L27.4255 91.1916L27.4557 91.2095L27.4859 91.2275L27.5162 91.2455L27.5465 91.2635L27.5769 91.2816L27.6073 91.2997L27.6378 91.3178L27.6684 91.336L27.699 91.3542L27.7296 91.3725L27.7604 91.3907L27.7911 91.4091L27.822 91.4274L27.8529 91.4458L27.8838 91.4642L27.9148 91.4826L27.9458 91.5011L27.9769 91.5196L28.0081 91.5381L28.0392 91.5566L28.0705 91.5752L28.1018 91.5938L28.1331 91.6125L28.1645 91.6312L28.1959 91.6499L28.2274 91.6686L28.2589 91.6873L28.2905 91.7061L28.3221 91.7249L28.3538 91.7438L28.3855 91.7626L28.4172 91.7815L28.449 91.8004L28.4808 91.8193L28.5127 91.8383L28.5446 91.8573L28.5766 91.8763L28.6086 91.8953L28.6406 91.9144L28.6727 91.9335L28.7048 91.9526L28.7369 91.9717L28.7691 91.9908L28.8013 92.01L28.8336 92.0292L28.8659 92.0484L28.8982 92.0676L28.9306 92.0869L28.9629 92.1061L28.9954 92.1254L29.0278 92.1447L29.0603 92.164L29.0928 92.1834L29.1254 92.2027L29.158 92.2221L29.1906 92.2415L29.2232 92.2609L29.2559 92.2804L29.2886 92.2998L29.3213 92.3193L29.354 92.3388L29.3868 92.3583L29.4196 92.3778L29.4524 92.3973L29.4853 92.4168L29.5181 92.4364L29.551 92.456L29.5839 92.4755L29.6169 92.4951L29.6498 92.5147L29.6828 92.5344L29.7158 92.554L29.7488 92.5736L29.7819 92.5933L29.8149 92.6129L29.848 92.6326L29.8811 92.6523L29.9142 92.672L29.9474 92.6917L29.9805 92.7114L30.0137 92.7311L30.0468 92.7509L30.08 92.7706L30.1132 92.7904L30.1464 92.8101L30.1796 92.8299L30.2129 92.8497L30.2461 92.8694L30.2794 92.8892L30.3127 92.909L30.3459 92.9288L30.3792 92.9486L30.4125 92.9684L30.4458 92.9882L30.4791 93.008L30.5124 93.0279L30.5458 93.0477L30.5791 93.0675L30.6124 93.0873L30.6458 93.1072L30.6791 93.127L30.7125 93.1468L30.7458 93.1667L30.7792 93.1865L30.8125 93.2064L30.8459 93.2262L30.8792 93.246L30.9126 93.2659L30.9459 93.2857L30.9793 93.3056L31.0126 93.3254L31.046 93.3452L31.0793 93.3651L31.1126 93.3849L31.146 93.4047L31.1793 93.4245L31.2126 93.4444L31.2459 93.4642L31.2793 93.484L31.3126 93.5038L31.3459 93.5236L31.3791 93.5434L31.4124 93.5632L31.4457 93.583L31.479 93.6028L31.5122 93.6226L31.5455 93.6424L31.5787 93.6621L31.6119 93.6819L31.6451 93.7016L31.6783 93.7214L31.7115 93.7411L31.7446 93.7608L31.7778 93.7806L31.8109 93.8003L31.844 93.82L31.8771 93.8397L31.9102 93.8593L31.9433 93.879L31.9763 93.8987L32.0093 93.9183L32.0423 93.9379L32.0753 93.9576L32.1083 93.9772L32.1412 93.9968L32.1742 94.0164L32.2071 94.0359L32.2399 94.0555L32.2728 94.075L32.3056 94.0946L32.3384 94.1141L32.3712 94.1336L32.404 94.1531L32.4367 94.1725L32.4694 94.192L32.5021 94.2114L32.5347 94.2308L32.5673 94.2502L32.5999 94.2696L32.6325 94.289L32.665 94.3083L32.6975 94.3277L32.73 94.347L32.7624 94.3663L32.7948 94.3855L32.8272 94.4048L32.8595 94.424L32.8918 94.4432L32.9241 94.4624L32.9563 94.4816L32.9885 94.5008L33.0206 94.5199L33.0527 94.539L33.0848 94.5581L33.1169 94.5771L33.1489 94.5962L33.1808 94.6152L33.2128 94.6342L33.2446 94.6531L33.2765 94.6721L33.3083 94.691L33.34 94.7099L33.3718 94.7288L33.4034 94.7476L33.4351 94.7664L33.4666 94.7852L33.4982 94.804L33.5297 94.8227L33.5611 94.8414L33.5925 94.8601L33.6239 94.8787L33.6552 94.8974L33.6864 94.916L33.7176 94.9345L33.7488 94.953L33.7799 94.9716L33.811 94.99L33.842 95.0085L33.8729 95.0269L33.9038 95.0453L33.9347 95.0636L33.9654 95.0819L33.9962 95.1002L34.0269 95.1185L34.0575 95.1367L34.0881 95.1549L34.1186 95.173L34.149 95.1911L34.1794 95.2092L34.2098 95.2273L34.2401 95.2453L34.2703 95.2633L34.3005 95.2812L34.3306 95.2991L34.3606 95.317L34.3906 95.3348L34.4205 95.3526L34.4504 95.3704L34.4802 95.3881L34.5099 95.4058L34.5395 95.4234L34.5691 95.441L34.5987 95.4586L34.6281 95.4761L34.6576 95.4936L34.6869 95.5111L34.7161 95.5285L34.7453 95.5459L34.7745 95.5632L34.8035 95.5805L34.8325 95.5977L34.8614 95.6149L34.8903 95.6321L34.9191 95.6492L34.9478 95.6663L34.9764 95.6833L35.0049 95.7003L35.0334 95.7172L35.0618 95.7341L35.0902 95.751L35.1184 95.7678L35.1466 95.7846L35.1747 95.8013L35.2027 95.8179L35.2307 95.8346L35.2585 95.8511L35.2863 95.8677L35.314 95.8842L35.3417 95.9006L35.3692 95.917L35.3967 95.9333L35.4241 95.9496L35.4514 95.9658L35.4786 95.982L35.5057 95.9982L35.5328 96.0143L35.5597 96.0303L35.5866 96.0463L35.6134 96.0622L35.6401 96.0781L35.6667 96.094L35.6932 96.1097L35.7197 96.1255L35.746 96.1411L35.7723 96.1568L35.7985 96.1723L35.8246 96.1878L35.8506 96.2033L35.8765 96.2187L35.9023 96.2341L35.928 96.2494L35.9536 96.2646L35.9791 96.2798L36.0046 96.2949L36.0299 96.31L36.0551 96.325L36.0803 96.34L36.1053 96.3549L36.1303 96.3697L36.1551 96.3845L36.1799 96.3992L36.2045 96.4139L36.2291 96.4285L36.2535 96.443L36.2779 96.4575L36.3022 96.472L36.3263 96.4863L36.3504 96.5006L36.3743 96.5149L36.3981 96.529L36.4219 96.5432L36.4455 96.5572L36.469 96.5712L36.4924 96.5852L36.5158 96.599L36.539 96.6128L36.5621 96.6266L36.5851 96.6402L36.6079 96.6539L36.6307 96.6674L36.6534 96.6809L36.6759 96.6943L36.6984 96.7076L36.7207 96.7209L36.7429 96.7341L36.765 96.7473L36.787 96.7604L36.8089 96.7734L36.8306 96.7863L36.8523 96.7992L36.8738 96.812L36.8952 96.8248L36.9165 96.8374L36.9377 96.85L36.9588 96.8625L36.9797 96.875L37.0005 96.8874L37.0212 96.8997L37.0418 96.912L37.0623 96.9241L37.0826 96.9362L37.1029 96.9483L37.123 96.9602L37.1429 96.9721L37.1628 96.9839L37.1825 96.9956L37.2021 97.0073L37.2216 97.0189L37.2409 97.0304L37.2602 97.0418L37.2793 97.0532L37.2982 97.0645L37.3171 97.0757L37.3358 97.0868L37.3544 97.0979L37.3728 97.1088L37.3911 97.1197L37.4093 97.1306L37.4274 97.1413L37.4453 97.152L37.4631 97.1626L37.4808 97.1731L37.4983 97.1835L37.5157 97.1938L37.533 97.2041L37.5501 97.2143L37.5671 97.2244L37.5839 97.2344L37.6006 97.2444L37.6172 97.2542L37.6336 97.264L37.6499 97.2737L37.6661 97.2833L37.6666 97.2836V98.9769V112.257C37.6666 112.812 37.2799 113.032 36.8028 112.748Z" fill="white" stroke="black" stroke-width="1.57908"/>
<path d="M88.4702 91.756L93.2976 88.9708L98.125 86.1855L207.18 149.138L202.353 151.924L197.526 154.71L88.4702 91.756Z" fill="black"/>
<mask id="mask0_3091_33916" style="mask-type:alpha" maskUnits="userSpaceOnUse" x="103" y="30" width="110" height="132">
<path d="M103.515 98.9845V30.6265L212.92 79.2451V161.784L103.515 98.9845Z" fill="black"/>
</mask>
<g mask="url(#mask0_3091_33916)">
<rect width="101.665" height="89.9349" rx="44.9674" transform="matrix(0.60772 -0.34552 0.60772 1.06863 88.9834 72.9482)" fill="#79EFBD" stroke="black" stroke-width="2.00824"/>
<rect width="89.9307" height="89.9389" rx="44.9654" transform="matrix(-3.75693e-08 -1 0.859406 0.511293 104.993 127.438)" fill="white" stroke="black" stroke-width="2.00824"/>
<path d="M129.724 78.2885L124.517 75.1909C124.517 75.1909 131.355 87.0968 136.997 96.6558C140.532 102.646 144.996 104.493 144.996 104.493C147.097 105.475 149.116 105.654 150.665 104.767L163.164 98.1835L157.958 95.086L148.131 100.202C145.747 101.418 141.964 99.2904 139.54 95.0994L129.724 78.2885Z" fill="black"/>
<path d="M129.724 116.256L124.517 113.159C124.517 113.159 131.355 109.204 136.997 106.359C140.532 104.575 144.996 108.039 144.996 108.039C147.097 109.557 149.116 111.78 150.665 114.511L163.164 136.151L157.958 133.054L148.131 116.061C145.747 112.008 141.964 109.634 139.54 110.941L129.724 116.256Z" fill="black"/>
</g>
<defs>
<filter id="filter0_f_3091_33916" x="5.74039" y="267.597" width="282.082" height="165.227" filterUnits="userSpaceOnUse" color-interpolation-filters="sRGB">
<feFlood flood-opacity="0" result="BackgroundImageFix"/>
<feBlend mode="normal" in="SourceGraphic" in2="BackgroundImageFix" result="shape"/>
<feGaussianBlur stdDeviation="0.853558" result="effect1_foregroundBlur_3091_33916"/>
</filter>
<linearGradient id="paint0_linear_3091_33916" x1="156.831" y1="304.229" x2="465.732" y2="653.641" gradientUnits="userSpaceOnUse">
<stop stop-color="#3A17CA"/>
<stop offset="1" stop-color="#3A17CA" stop-opacity="0"/>
</linearGradient>
</defs>
</svg>
